<?xml version="1.0" encoding="utf-8"?>
<!-- Generator: Adobe Illustrator 16.0.0, SVG Export Plug-In . SVG Version: 6.00 Build 0)  -->
<!DOCTYPE svg PUBLIC "-//W3C//DTD SVG 1.1//EN" "http://www.w3.org/Graphics/SVG/1.1/DTD/svg11.dtd">
<svg version="1.1" id="Layer_1" xmlns="http://www.w3.org/2000/svg" xmlns:xlink="http://www.w3.org/1999/xlink" x="0px" y="0px"
	 width="612px" height="792px" viewBox="0 0 612 792" enable-background="new 0 0 612 792" xml:space="preserve">
<path fill="#00AEEF" stroke="#00AEEF" stroke-miterlimit="10" d="M545.696,335.031c0,92.159-95.477,166.868-213.253,166.868
	c-73.432,0-138.194-29.043-176.552-73.248c-7.428-8.559-13.866-17.688-19.185-27.285c-11.269-20.331-17.516-42.762-17.516-66.334
	c0-92.158,95.477-166.867,213.253-166.867S545.696,242.873,545.696,335.031z"/>
<path fill="#2B3990" stroke="#FFFFFF" stroke-miterlimit="10" d="M512.503,335.523c0,77.305-80.087,139.973-178.879,139.973
	c-61.598,0-115.921-24.363-148.097-61.442c-6.231-7.181-11.632-14.838-16.093-22.888c-9.453-17.054-14.693-35.87-14.693-55.643
	c0-77.304,80.087-139.972,178.882-139.972C432.416,195.551,512.503,258.219,512.503,335.523z"/>
<path fill="#FFFFFF" stroke="#FFFFFF" stroke-miterlimit="10" d="M482.827,333.79c0,61.729-67.329,111.767-150.383,111.767
	c-51.783,0-97.453-19.451-124.503-49.061c-5.238-5.732-9.778-11.847-13.528-18.276c-7.947-13.617-12.353-28.642-12.353-44.431
	c0-61.728,67.329-111.767,150.384-111.767C415.498,222.022,482.827,272.062,482.827,333.79z"/>
<path fill="#00AEEF" stroke="#00AEEF" stroke-miterlimit="10" d="M442.465,337.311c0,45.161-49.259,81.77-110.021,81.77
	c-37.885,0-71.297-14.23-91.088-35.893c-3.833-4.194-7.154-8.667-9.897-13.371c-5.814-9.962-9.037-20.955-9.037-32.506
	c0-45.161,49.258-81.77,110.022-81.77C393.206,255.541,442.465,292.15,442.465,337.311z"/>
<ellipse fill="#2B3990" stroke="#FFFFFF" stroke-miterlimit="10" cx="335.193" cy="338.312" rx="86.145" ry="68.245"/>
<ellipse fill="#00AEEF" stroke="#00AEEF" stroke-miterlimit="10" cx="332.443" cy="338.312" rx="46.103" ry="45.359"/>
</svg>
